<?xml version="1.0" encoding="utf-8"?>
<!-- Generator: Adobe Illustrator 22.1.0, SVG Export Plug-In . SVG Version: 6.00 Build 0)  -->
<svg version="1.1" id="Layer_1" focusable="false" xmlns="http://www.w3.org/2000/svg" xmlns:xlink="http://www.w3.org/1999/xlink"
	 x="0px" y="0px" viewBox="0 0 640 512" style="enable-background:new 0 0 640 512;" xml:space="preserve">
<style type="text/css">
	.st0{fill:#D9D9D9;}
</style>
<g>
	<path class="st0" d="M624,368H80c-8.8,0-16,7.2-16,16v16c0,8.8,7.2,16,16,16h544c8.8,0,16-7.2,16-16v-16
		C640,375.2,632.8,368,624,368z"/>
	<path class="st0" d="M144,464H16c-8.8,0-16,7.2-16,16v16c0,8.8,7.2,16,16,16h128c8.8,0,16-7.2,16-16v-16
		C160,471.2,152.8,464,144,464z"/>
	<path class="st0" d="M560,464H224c-8.8,0-16,7.2-16,16v16c0,8.8,7.2,16,16,16h336c8.8,0,16-7.2,16-16v-16
		C576,471.2,568.8,464,560,464z"/>
	<path class="st0" d="M16,320h544c8.8,0,16-7.2,16-16v-16c0-8.8-7.2-16-16-16H16c-8.8,0-16,7.2-16,16v16C0,312.8,7.2,320,16,320z"/>
	<path class="st0" d="M496,224h128c8.8,0,16-7.2,16-16v-16c0-8.8-7.2-16-16-16H496c-8.8,0-16,7.2-16,16v16
		C480,216.8,487.2,224,496,224z"/>
	<path class="st0" d="M80,224h336c8.8,0,16-7.2,16-16v-16c0-8.8-7.2-16-16-16H80c-8.8,0-16,7.2-16,16v16C64,216.8,71.2,224,80,224z"
		/>
	<path class="st0" d="M624,2H80c-8.8,0-16,7.2-16,16v16c0,8.8,7.2,16,16,16h544c8.8,0,16-7.2,16-16V18C640,9.2,632.8,2,624,2z"/>
	<path class="st0" d="M144,98H16c-8.8,0-16,7.2-16,16v16c0,8.8,7.2,16,16,16h128c8.8,0,16-7.2,16-16v-16C160,105.2,152.8,98,144,98z
		"/>
	<path class="st0" d="M560,98H224c-8.8,0-16,7.2-16,16v16c0,8.8,7.2,16,16,16h336c8.8,0,16-7.2,16-16v-16C576,105.2,568.8,98,560,98
		z"/>
</g>
</svg>
