<?xml version="1.0" encoding="UTF-8" standalone="no"?>
<!DOCTYPE svg PUBLIC "-//W3C//DTD SVG 1.1//EN" "http://www.w3.org/Graphics/SVG/1.1/DTD/svg11.dtd">
<svg version="1.1" xmlns="http://www.w3.org/2000/svg" xmlns:xlink="http://www.w3.org/1999/xlink" preserveAspectRatio="xMidYMid meet" viewBox="0 0 640 640" width="512" height="512"><defs><path d="M414.4 128.2C415.5 123 416 117.6 416 112C416 67.8 380.2 32 336 32C311.4 32 289.7 43.3 275 60.8C256.4 24.8 219.3 0 176 0C114.2 0 64 50.1 64 112C64 119.3 64.8 126.3 66.1 133.2C27.8 145.8 0 181.5 0 224C0 277 43 320 96 320C128 320 384 320 416 320C469 320 512 277 512 224C512 171 469 128 416 128C415.4 128 414.9 128.2 414.4 128.2Z" id="bFgqaEnob"></path><path d="M105.78 336.53L64.66 343.16L52.47 379.75L81.4 409.72L122.53 403.09L134.72 366.5L105.78 336.53Z" id="e125XUZwzU"></path><path d="M270.27 336.53L229.15 343.16L216.96 379.75L245.9 409.72L287.02 403.09L299.21 366.5L270.27 336.53Z" id="aRJaUQwgC"></path><path d="M434.76 336.53L393.64 343.16L381.45 379.75L410.39 409.72L451.51 403.09L463.7 366.5L434.76 336.53Z" id="b51rUtiJT5"></path><path d="M188.03 438.81L146.9 445.44L134.72 482.04L163.65 512L204.77 505.37L216.96 468.78L188.03 438.81Z" id="a19Zh6JYke"></path><path d="M352.52 438.81L311.4 445.44L299.21 482.04L328.14 512L369.27 505.37L381.45 468.78L352.52 438.81Z" id="a1xmJs0On7"></path></defs><g><g><g><use xlink:href="#bFgqaEnob" opacity="1" fill="#d9d9d9" fill-opacity="1"></use><g><use xlink:href="#bFgqaEnob" opacity="1" fill-opacity="0" stroke="#000000" stroke-width="1" stroke-opacity="0"></use></g></g><g><use xlink:href="#e125XUZwzU" opacity="1" fill="#a1d7f5" fill-opacity="1"></use></g><g><use xlink:href="#aRJaUQwgC" opacity="1" fill="#a1d7f5" fill-opacity="1"></use></g><g><use xlink:href="#b51rUtiJT5" opacity="1" fill="#a1d7f5" fill-opacity="1"></use></g><g><use xlink:href="#a19Zh6JYke" opacity="1" fill="#a1d7f5" fill-opacity="1"></use></g><g><use xlink:href="#a1xmJs0On7" opacity="1" fill="#a1d7f5" fill-opacity="1"></use></g></g></g></svg>