<?xml version="1.0" encoding="UTF-8" standalone="no"?>
<!DOCTYPE svg PUBLIC "-//W3C//DTD SVG 1.1//EN" "http://www.w3.org/Graphics/SVG/1.1/DTD/svg11.dtd">
<svg version="1.1" xmlns="http://www.w3.org/2000/svg" xmlns:xlink="http://www.w3.org/1999/xlink" preserveAspectRatio="xMidYMid meet" viewBox="0 0 640 640" width="640" height="640"><defs><path d="M518 160.25C519.38 153.75 520 147 520 140C520 84.75 475.25 40 420 40C389.25 40 362.13 54.12 343.75 76C320.5 31 274.13 0 220 0C142.75 0 80 62.63 80 140C80 149.13 81 157.88 82.63 166.5C34.75 182.25 0 226.88 0 280C0 346.25 53.75 400 120 400C160 400 480 400 520 400C586.25 400 640 346.25 640 280C640 213.75 586.25 160 520 160C519.25 160 518.63 160.25 518 160.25Z" id="b3qfwQVxDb"></path><path d="M132.23 420.67L80.82 428.95L65.59 474.69L101.76 512.15L153.16 503.86L168.39 458.12L132.23 420.67Z" id="jRFa1S5t"></path><path d="M337.84 420.67L286.44 428.95L271.2 474.69L307.37 512.15L358.77 503.86L374.01 458.12L337.84 420.67Z" id="aksnVMBNz"></path><path d="M543.46 420.67L492.05 428.95L476.82 474.69L512.99 512.15L564.39 503.86L579.62 458.12L543.46 420.67Z" id="bdDZSTqkg"></path><path d="M235.03 548.52L183.63 556.8L168.39 602.55L204.56 640L255.97 631.71L271.2 585.97L235.03 548.52Z" id="anmKjNmpk"></path><path d="M440.65 548.52L389.24 556.8L374.01 602.55L410.18 640L461.58 631.71L476.82 585.97L440.65 548.52Z" id="bkx3FtUnA"></path></defs><g><g><g><use xlink:href="#b3qfwQVxDb" opacity="1" fill="#d9d9d9" fill-opacity="1"></use><g><use xlink:href="#b3qfwQVxDb" opacity="1" fill-opacity="0" stroke="#000000" stroke-width="1" stroke-opacity="0"></use></g></g><g><use xlink:href="#jRFa1S5t" opacity="1" fill="#a1d7f5" fill-opacity="1"></use></g><g><use xlink:href="#aksnVMBNz" opacity="1" fill="#a1d7f5" fill-opacity="1"></use></g><g><use xlink:href="#bdDZSTqkg" opacity="1" fill="#a1d7f5" fill-opacity="1"></use></g><g><use xlink:href="#anmKjNmpk" opacity="1" fill="#a1d7f5" fill-opacity="1"></use></g><g><use xlink:href="#bkx3FtUnA" opacity="1" fill="#a1d7f5" fill-opacity="1"></use></g></g></g></svg>