<?xml version="1.0" encoding="utf-8"?>
<!-- Generator: Adobe Illustrator 22.1.0, SVG Export Plug-In . SVG Version: 6.00 Build 0)  -->
<svg version="1.1" id="Layer_1" focusable="false" xmlns="http://www.w3.org/2000/svg" xmlns:xlink="http://www.w3.org/1999/xlink"
	 x="0px" y="0px" viewBox="0 0 512 512" style="enable-background:new 0 0 512 512;" xml:space="preserve">
<style type="text/css">
	.st0{fill:#4DBFD9;}
	.st1{fill:#D9D9D9;}
</style>
<path class="st0" d="M183.9,370.1c-7.6-4.4-17.4-1.8-21.8,6l-64,112c-4.4,7.7-1.7,17.5,6,21.8c2.5,1.4,5.2,2.1,7.9,2.1
	c5.5,0,10.9-2.9,13.9-8.1l64-112C194.3,384.3,191.6,374.5,183.9,370.1z"/>
<path class="st0" d="M279.9,370.1c-7.6-4.4-17.4-1.8-21.8,6l-64,112c-4.4,7.7-1.7,17.5,6,21.8c2.5,1.4,5.2,2.1,7.9,2.1
	c5.5,0,10.9-2.9,13.9-8.1l64-112C290.3,384.3,287.6,374.5,279.9,370.1z"/>
<path class="st0" d="M87.9,370.1c-7.6-4.4-17.4-1.8-21.8,6l-64,112c-4.4,7.7-1.7,17.5,6,21.8c2.5,1.4,5.2,2.1,7.9,2.1
	c5.5,0,10.9-2.9,13.9-8.1l64-112C98.3,384.3,95.6,374.5,87.9,370.1z"/>
<path class="st0" d="M471.9,370.1c-7.6-4.4-17.4-1.8-21.8,6l-64,112c-4.4,7.7-1.7,17.5,6,21.8c2.5,1.4,5.2,2.1,7.9,2.1
	c5.5,0,10.9-2.9,13.9-8.1l64-112C482.3,384.3,479.6,374.5,471.9,370.1z"/>
<path class="st0" d="M375.9,370.1c-7.6-4.4-17.4-1.8-21.8,6l-64,112c-4.4,7.7-1.7,17.5,6,21.8c2.5,1.4,5.2,2.1,7.9,2.1
	c5.5,0,10.9-2.9,13.9-8.1l64-112C386.3,384.3,383.6,374.5,375.9,370.1z"/>
<path class="st1" d="M416,128c-0.6,0-1.1,0.2-1.6,0.2c1.1-5.2,1.6-10.6,1.6-16.2c0-44.2-35.8-80-80-80c-24.6,0-46.3,11.3-61,28.8
	C256.4,24.8,219.3,0,176,0C114.2,0,64,50.1,64,112c0,7.3,0.8,14.3,2.1,21.2C27.8,145.8,0,181.5,0,224c0,53,43,96,96,96h320
	c53,0,96-43,96-96S469,128,416,128z"/>
</svg>
