<?xml version="1.0" encoding="utf-8"?>
<!-- Generator: Adobe Illustrator 22.1.0, SVG Export Plug-In . SVG Version: 6.00 Build 0)  -->
<svg version="1.1" id="Layer_1" focusable="false" xmlns="http://www.w3.org/2000/svg" xmlns:xlink="http://www.w3.org/1999/xlink"
	 x="0px" y="0px" viewBox="0 0 512 512" style="enable-background:new 0 0 512 512;" xml:space="preserve">
<style type="text/css">
	.st0{fill:#D9D9D9;}
	.st1{fill:#A1D7F5;}
</style>
<path class="st0" d="M416,128c-0.6,0-1.1,0.2-1.6,0.2c1.1-5.2,1.6-10.6,1.6-16.2c0-44.2-35.8-80-80-80c-24.6,0-46.3,11.3-61,28.8
	C256.4,24.8,219.3,0,176,0C114.2,0,64,50.1,64,112c0,7.3,0.8,14.3,2.1,21.2C27.8,145.8,0,181.5,0,224c0,53,43,96,96,96h320
	c53,0,96-43,96-96S469,128,416,128z"/>
<path class="st1" d="M177.3,395.6l-7.6-4.5l6.6-1.8c1.6-0.4,2.6-2.2,2.2-3.8l-0.8-3c-0.4-1.7-2.1-2.6-3.8-2.2l-15.5,4.2l-14-8.2
	l14-8.2l15.5,4.2c1.6,0.4,3.3-0.5,3.8-2.2l0.8-3c0.4-1.7-0.5-3.4-2.2-3.8l-6.6-1.8l7.6-4.5c1.5-0.9,2-2.8,1.1-4.3l-1.5-2.7
	c-0.8-1.5-2.7-2-4.2-1.1l-7.6,4.5l1.8-6.7c0.4-1.7-0.5-3.4-2.2-3.8l-3-0.8c-1.6-0.4-3.3,0.5-3.8,2.2l-4.1,15.7l-14,8.2v-16.4
	l11.3-11.5c1.2-1.2,1.2-3.2,0-4.4l-2.2-2.2c-1.2-1.2-3.1-1.2-4.3,0l-4.8,4.9v-8.9c0-1.7-1.4-3.1-3.1-3.1h-3.1
	c-1.7,0-3.1,1.4-3.1,3.1v9l-4.8-4.9c-1.2-1.2-3.1-1.2-4.3,0l-2.2,2.2c-1.2,1.2-1.2,3.2,0,4.4l11.3,11.5v16.4l-14-8.2l-4.1-15.7
	c-0.4-1.7-2.1-2.6-3.8-2.2l-3,0.8c-1.6,0.4-2.6,2.2-2.2,3.8l1.8,6.7l-7.6-4.5c-1.5-0.9-3.3-0.3-4.2,1.1l-1.5,2.7
	c-0.8,1.5-0.3,3.4,1.1,4.3l7.6,4.5l-6.6,1.8c-1.6,0.4-2.6,2.2-2.2,3.8l0.8,3c0.4,1.7,2.1,2.6,3.8,2.2l15.5-4.2l14,8.2l-14,8.2
	l-15.5-4.2c-1.6-0.4-3.3,0.5-3.8,2.2l-0.8,3c-0.4,1.7,0.5,3.4,2.2,3.8l6.6,1.8l-7.6,4.5c-1.5,0.9-2,2.8-1.1,4.3l1.5,2.7
	c0.8,1.5,2.7,2,4.2,1.1l7.6-4.5l-1.8,6.7c-0.4,1.7,0.5,3.4,2.2,3.8l3,0.8c1.6,0.4,3.3-0.5,3.8-2.2l4.1-15.7l14-8.2v16.4l-11.3,11.5
	c-1.2,1.2-1.2,3.2,0,4.4l2.2,2.2c1.2,1.2,3.1,1.2,4.3,0l4.8-4.9v8.9c0,1.7,1.4,3.1,3.1,3.1h3.1c1.7,0,3.1-1.4,3.1-3.1v-9l4.8,4.9
	c1.2,1.2,3.1,1.2,4.3,0l2.2-2.2c1.2-1.2,1.2-3.2,0-4.4l-11.3-11.5v-16.4l14,8.2l4.1,15.7c0.4,1.7,2.1,2.6,3.8,2.2l3-0.8
	c1.6-0.4,2.6-2.2,2.2-3.8l-1.8-6.7l7.6,4.5c1.5,0.9,3.3,0.3,4.2-1.1l1.5-2.7C179.3,398.4,178.8,396.4,177.3,395.6L177.3,395.6z"/>
<path class="st1" d="M418.7,395.6l-7.6-4.5l6.6-1.8c1.6-0.4,2.6-2.2,2.2-3.8l-0.8-3c-0.4-1.7-2.1-2.6-3.8-2.2l-15.5,4.2l-14-8.2
	l14-8.2l15.5,4.2c1.6,0.4,3.3-0.5,3.8-2.2l0.8-3c0.4-1.7-0.5-3.4-2.2-3.8l-6.6-1.8l7.6-4.5c1.5-0.9,2-2.8,1.1-4.3l-1.5-2.7
	c-0.8-1.5-2.7-2-4.2-1.1l-7.6,4.5l1.8-6.7c0.4-1.7-0.5-3.4-2.2-3.8l-3-0.8c-1.6-0.4-3.3,0.5-3.8,2.2l-4.1,15.7l-14,8.2v-16.4
	l11.3-11.5c1.2-1.2,1.2-3.2,0-4.4l-2.2-2.2c-1.2-1.2-3.1-1.2-4.3,0l-4.8,4.9v-8.9c0-1.7-1.4-3.1-3.1-3.1h-3.1
	c-1.7,0-3.1,1.4-3.1,3.1v9l-4.8-4.9c-1.2-1.2-3.1-1.2-4.3,0l-2.2,2.2c-1.2,1.2-1.2,3.2,0,4.4l11.3,11.5v16.4l-14-8.2l-4.1-15.7
	c-0.4-1.7-2.1-2.6-3.8-2.2l-3,0.8c-1.6,0.4-2.6,2.2-2.2,3.8l1.8,6.7l-7.6-4.5c-1.5-0.9-3.3-0.3-4.2,1.1l-1.5,2.7
	c-0.8,1.5-0.3,3.4,1.1,4.3l7.6,4.5l-6.6,1.8c-1.6,0.4-2.6,2.2-2.2,3.8l0.8,3c0.4,1.7,2.1,2.6,3.8,2.2l15.5-4.2l14,8.2l-14,8.2
	l-15.5-4.2c-1.6-0.4-3.3,0.5-3.8,2.2l-0.8,3c-0.4,1.7,0.5,3.4,2.2,3.8l6.6,1.8l-7.6,4.5c-1.5,0.9-2,2.8-1.1,4.3l1.5,2.7
	c0.8,1.5,2.7,2,4.2,1.1l7.6-4.5l-1.8,6.7c-0.4,1.7,0.5,3.4,2.2,3.8l3,0.8c1.6,0.4,3.3-0.5,3.8-2.2l4.1-15.7l14-8.2v16.4l-11.3,11.5
	c-1.2,1.2-1.2,3.2,0,4.4l2.2,2.2c1.2,1.2,3.1,1.2,4.3,0l4.8-4.9v8.9c0,1.7,1.4,3.1,3.1,3.1h3.1c1.7,0,3.1-1.4,3.1-3.1v-9l4.8,4.9
	c1.2,1.2,3.1,1.2,4.3,0l2.2-2.2c1.2-1.2,1.2-3.2,0-4.4l-11.3-11.5v-16.4l14,8.2l4.1,15.7c0.4,1.7,2.1,2.6,3.8,2.2l3-0.8
	c1.6-0.4,2.6-2.2,2.2-3.8l-1.8-6.7l7.6,4.5c1.5,0.9,3.3,0.3,4.2-1.1l1.5-2.7C420.7,398.4,420.2,396.4,418.7,395.6L418.7,395.6z"/>
<path class="st1" d="M298,396.2l-7.6-4.5l6.6-1.8c1.6-0.4,2.6-2.2,2.2-3.8l-0.8-3c-0.4-1.7-2.1-2.6-3.8-2.2l-15.5,4.2l-14-8.2
	l14-8.2l15.5,4.2c1.6,0.4,3.3-0.5,3.8-2.2l0.8-3c0.4-1.7-0.5-3.4-2.2-3.8l-6.6-1.8l7.6-4.5c1.5-0.9,2-2.8,1.1-4.3l-1.5-2.7
	c-0.8-1.5-2.7-2-4.2-1.1l-7.6,4.5l1.8-6.7c0.4-1.7-0.5-3.4-2.2-3.8l-3-0.8c-1.6-0.4-3.3,0.5-3.8,2.2l-4.1,15.7l-14,8.2v-16.4
	l11.3-11.5c1.2-1.2,1.2-3.2,0-4.4l-2.2-2.2c-1.2-1.2-3.1-1.2-4.3,0l-4.8,4.9v-8.9c0-1.7-1.4-3.1-3.1-3.1h-3.1
	c-1.7,0-3.1,1.4-3.1,3.1v9l-4.8-4.9c-1.2-1.2-3.1-1.2-4.3,0l-2.2,2.2c-1.2,1.2-1.2,3.2,0,4.4l11.3,11.5v16.4l-14-8.2l-4.1-15.7
	c-0.4-1.7-2.1-2.6-3.8-2.2l-3,0.8c-1.6,0.4-2.6,2.2-2.2,3.8l1.8,6.7l-7.6-4.5c-1.5-0.9-3.3-0.3-4.2,1.1l-1.5,2.7
	c-0.8,1.5-0.3,3.4,1.1,4.3l7.6,4.5l-6.6,1.8c-1.6,0.4-2.6,2.2-2.2,3.8l0.8,3c0.4,1.7,2.1,2.6,3.8,2.2l15.5-4.2l14,8.2l-14,8.2
	l-15.5-4.2c-1.6-0.4-3.3,0.5-3.8,2.2l-0.8,3c-0.4,1.7,0.5,3.4,2.2,3.8l6.6,1.8l-7.6,4.5c-1.5,0.9-2,2.8-1.1,4.3l1.5,2.7
	c0.8,1.5,2.7,2,4.2,1.1l7.6-4.5l-1.8,6.7c-0.4,1.7,0.5,3.4,2.2,3.8l3,0.8c1.6,0.4,3.3-0.5,3.8-2.2l4.1-15.7l14-8.2v16.4l-11.3,11.5
	c-1.2,1.2-1.2,3.2,0,4.4l2.2,2.2c1.2,1.2,3.1,1.2,4.3,0l4.8-4.9v8.9c0,1.7,1.4,3.1,3.1,3.1h3.1c1.7,0,3.1-1.4,3.1-3.1v-9l4.8,4.9
	c1.2,1.2,3.1,1.2,4.3,0l2.2-2.2c1.2-1.2,1.2-3.2,0-4.4l-11.3-11.5V385l14,8.2l4.1,15.7c0.4,1.7,2.1,2.6,3.8,2.2l3-0.8
	c1.6-0.4,2.6-2.2,2.2-3.8l-1.8-6.7l7.6,4.5c1.5,0.9,3.3,0.3,4.2-1.1l1.5-2.7C300,398.9,299.5,397,298,396.2L298,396.2z"/>
<path class="st1" d="M237.4,481.5l-7.6-4.5l6.6-1.8c1.6-0.4,2.6-2.2,2.2-3.8l-0.8-3c-0.4-1.7-2.1-2.6-3.8-2.2l-15.5,4.2l-14-8.2
	l14-8.2l15.5,4.2c1.6,0.4,3.3-0.5,3.8-2.2l0.8-3c0.4-1.7-0.5-3.4-2.2-3.8l-6.6-1.8l7.6-4.5c1.5-0.9,2-2.8,1.1-4.3L237,436
	c-0.8-1.5-2.7-2-4.2-1.1l-7.6,4.5l1.8-6.7c0.4-1.7-0.5-3.4-2.2-3.8l-3-0.8c-1.6-0.4-3.3,0.5-3.8,2.2l-4.1,15.7l-14,8.2v-16.4
	l11.3-11.5c1.2-1.2,1.2-3.2,0-4.4l-2.2-2.2c-1.2-1.2-3.1-1.2-4.3,0l-4.8,4.9v-8.9c0-1.7-1.4-3.1-3.1-3.1h-3.1
	c-1.7,0-3.1,1.4-3.1,3.1v9l-4.8-4.9c-1.2-1.2-3.1-1.2-4.3,0l-2.2,2.2c-1.2,1.2-1.2,3.2,0,4.4l11.3,11.5v16.4l-14-8.2l-4.1-15.7
	c-0.4-1.7-2.1-2.6-3.8-2.2l-3,0.8c-1.6,0.4-2.6,2.2-2.2,3.8l1.8,6.7l-7.6-4.5c-1.5-0.9-3.3-0.3-4.2,1.1l-1.5,2.7
	c-0.8,1.5-0.3,3.4,1.1,4.3l7.6,4.5l-6.6,1.8c-1.6,0.4-2.6,2.2-2.2,3.8l0.8,3c0.4,1.7,2.1,2.6,3.8,2.2l15.5-4.2l14,8.2l-14,8.2
	l-15.5-4.2c-1.6-0.4-3.3,0.5-3.8,2.2l-0.8,3c-0.4,1.7,0.5,3.4,2.2,3.8l6.6,1.8l-7.6,4.5c-1.5,0.9-2,2.8-1.1,4.3l1.5,2.7
	c0.8,1.5,2.7,2,4.2,1.1l7.6-4.5l-1.8,6.7c-0.4,1.7,0.5,3.4,2.2,3.8l3,0.8c1.6,0.4,3.3-0.5,3.8-2.2l4.1-15.7l14-8.2v16.4l-11.3,11.5
	c-1.2,1.2-1.2,3.2,0,4.4l2.2,2.2c1.2,1.2,3.1,1.2,4.3,0l4.8-4.9v8.9c0,1.7,1.4,3.1,3.1,3.1h3.1c1.7,0,3.1-1.4,3.1-3.1v-9l4.8,4.9
	c1.2,1.2,3.1,1.2,4.3,0l2.2-2.2c1.2-1.2,1.2-3.2,0-4.4l-11.3-11.5v-16.4l14,8.2l4.1,15.7c0.4,1.7,2.1,2.6,3.8,2.2l3-0.8
	c1.6-0.4,2.6-2.2,2.2-3.8l-1.8-6.7l7.6,4.5c1.5,0.9,3.3,0.3,4.2-1.1l1.5-2.7C239.4,484.3,238.9,482.4,237.4,481.5L237.4,481.5z"/>
<path class="st1" d="M358.6,481.5L351,477l6.6-1.8c1.6-0.4,2.6-2.2,2.2-3.8l-0.8-3c-0.4-1.7-2.1-2.6-3.8-2.2l-15.5,4.2l-14-8.2
	l14-8.2l15.5,4.2c1.6,0.4,3.3-0.5,3.8-2.2l0.8-3c0.4-1.7-0.5-3.4-2.2-3.8l-6.6-1.8l7.6-4.5c1.5-0.9,2-2.8,1.1-4.3l-1.5-2.7
	c-0.8-1.5-2.7-2-4.2-1.1l-7.6,4.5l1.8-6.7c0.4-1.7-0.5-3.4-2.2-3.8l-3-0.8c-1.6-0.4-3.3,0.5-3.8,2.2l-4.1,15.7l-14,8.2v-16.4
	l11.3-11.5c1.2-1.2,1.2-3.2,0-4.4l-2.2-2.2c-1.2-1.2-3.1-1.2-4.3,0l-4.8,4.9v-8.9c0-1.7-1.4-3.1-3.1-3.1h-3.1
	c-1.7,0-3.1,1.4-3.1,3.1v9l-4.8-4.9c-1.2-1.2-3.1-1.2-4.3,0l-2.2,2.2c-1.2,1.2-1.2,3.2,0,4.4l11.3,11.5v16.4l-14-8.2l-4.1-15.7
	c-0.4-1.7-2.1-2.6-3.8-2.2l-3,0.8c-1.6,0.4-2.6,2.2-2.2,3.8l1.8,6.7l-7.6-4.5c-1.5-0.9-3.3-0.3-4.2,1.1l-1.5,2.7
	c-0.8,1.5-0.3,3.4,1.1,4.3l7.6,4.5l-6.6,1.8c-1.6,0.4-2.6,2.2-2.2,3.8l0.8,3c0.4,1.7,2.1,2.6,3.8,2.2l15.5-4.2l14,8.2l-14,8.2
	l-15.5-4.2c-1.6-0.4-3.3,0.5-3.8,2.2l-0.8,3c-0.4,1.7,0.5,3.4,2.2,3.8l6.6,1.8l-7.6,4.5c-1.5,0.9-2,2.8-1.1,4.3l1.5,2.7
	c0.8,1.5,2.7,2,4.2,1.1l7.6-4.5l-1.8,6.7c-0.4,1.7,0.5,3.4,2.2,3.8l3,0.8c1.6,0.4,3.3-0.5,3.8-2.2l4.1-15.7l14-8.2v16.4l-11.3,11.5
	c-1.2,1.2-1.2,3.2,0,4.4l2.2,2.2c1.2,1.2,3.1,1.2,4.3,0l4.8-4.9v8.9c0,1.7,1.4,3.1,3.1,3.1h3.1c1.7,0,3.1-1.4,3.1-3.1v-9l4.8,4.9
	c1.2,1.2,3.1,1.2,4.3,0l2.2-2.2c1.2-1.2,1.2-3.2,0-4.4l-11.3-11.5v-16.4l14,8.2l4.1,15.7c0.4,1.7,2.1,2.6,3.8,2.2l3-0.8
	c1.6-0.4,2.6-2.2,2.2-3.8l-1.8-6.7l7.6,4.5c1.5,0.9,3.3,0.3,4.2-1.1l1.5-2.7C360.6,484.3,360.1,482.4,358.6,481.5L358.6,481.5z"/>
</svg>
